<?xml version="1.0" standalone="no"?>
<!DOCTYPE svg PUBLIC "-//W3C//DTD SVG 20010904//EN"
 "http://www.w3.org/TR/2001/REC-SVG-20010904/DTD/svg10.dtd">
<svg version="1.0" xmlns="http://www.w3.org/2000/svg"
 width="640.000000pt" height="640.000000pt" viewBox="0 0 640.000000 640.000000"
 preserveAspectRatio="xMidYMid meet">
<metadata>
Created by potrace 1.14, written by Peter Selinger 2001-2017
</metadata>
<g transform="translate(0.000000,640.000000) scale(0.100000,-0.100000)"
fill="#000000" stroke="none">
<path d="M0 3200 l0 -3200 3200 0 3200 0 0 3200 0 3200 -3200 0 -3200 0 0
-3200z m3174 1795 l379 -185 397 0 398 0 358 -396 c289 -318 359 -401 358
-422 0 -25 -1097 -2777 -1113 -2794 -4 -5 -226 540 -493 1210 -692 1731 -626
1555 -638 1697 -5 66 -12 140 -15 165 -2 25 -9 106 -15 180 -6 74 -13 158 -15
185 -9 91 -34 388 -40 470 -3 44 -9 88 -12 99 -5 17 -3 17 33 -3 22 -11 210
-104 418 -206z m-991 -1296 c-2 -5 1 -8 6 -6 5 1 68 -27 140 -63 l131 -64 0
-1188 0 -1188 -157 0 -158 0 -26 63 c-23 53 -413 913 -469 1032 -142 303 -201
431 -306 659 l-124 269 0 488 0 489 483 -241 c265 -133 481 -245 480 -250z"/>
</g>
</svg>
